DBRep_DrawableShape

CASCADE Topology V1, (c) Matra-Datavision
Locations 11
1
              1               0               0               0 
              0               1               0               0 
              0               0               1               0 
1
              1               0               0              -0 
              0               1               0              -0 
              0               0               1              -5 
1
              1               0               0               0 
              0               1               0               0 
              0               0               1              10 
2  2 1 3 1 0
1
              1               0               0               0 
              0               1               0               0 
              0               0               1               0 
1
              1               0               0               0 
              0               1               0               0 
              0               0               1               0 
2  5 1 6 1 2 1 0
2  6 -1 5 -1 0
2  5 1 6 1 2 1 3 1 0
2  2 -1 6 -1 5 -1 0
2  3 -1 2 -1 6 -1 5 -1 0
Curve2ds 8
1 0 0 0 -1 
1 6.2831853071795862 0 0 -1 
1 0 0 1 0 
1 0 -10 1 0 
1 0 0 0 -1 
1 6.2831853071795862 0 0 -1 
1 0 0 1 0 
1 0 -10 1 0 
Curves 16
1 300 0 -5 0 0 1 
1 150 259.8076211353316 -5 0 0 1 
1 300 0 0 -0.5 0.86602540378443871 0 
1 -150 259.8076211353316 -5 0 0 1 
1 150 259.8076211353316 0 -1 0 0 
1 -300 0 -5 0 0 1 
1 -150 259.8076211353316 0 -0.5 -0.86602540378443871 0 
1 -150.00000000000003 -259.8076211353316 -5 0 0 1 
1 -300 0 0 0.49999999999999989 -0.86602540378443871 0 
1 149.99999999999997 -259.8076211353316 -5 0 0 1 
1 -150.00000000000003 -259.8076211353316 0 1 0 0 
1 149.99999999999997 -259.8076211353316 0 0.50000000000000011 0.86602540378443871 0 
1 20 -49.999999999999993 -5 0 0 1 
2 0 -49.999999999999993 0 0 0 1 1 0 0 0 1 0 20
1 20 50 -5 0 0 1 
2 0 50 0 0 0 1 1 0 0 0 1 0 20
Polygon3D 0
PolygonOnTriangulations 0
Surfaces 9
1 300 0 -5 -0.86602540378443871 -0.5 0 -0.5 0.86602540378443871 0 -0 0 -1 
1 150 259.8076211353316 -5 0 -1 0 -1 0 0 -0 -0 -1 
1 -150 259.8076211353316 -5 0.86602540378443871 -0.5 0 -0.5 -0.86602540378443871 0 0 -0 -1 
1 -300 0 -5 0.86602540378443871 0.49999999999999989 -0 0.49999999999999989 -0.86602540378443871 0 0 -0 -1 
1 -150.00000000000003 -259.8076211353316 -5 0 1 0 1 0 0 0 0 -1 
1 149.99999999999997 -259.8076211353316 -5 -0.86602540378443871 0.50000000000000011 0 0.50000000000000011 0.86602540378443871 0 0 0 -1 
2 0 -49.999999999999993 -5 -0 -0 -1 1 0 0 0 1 0 20
2 0 50 -5 -0 -0 -1 1 0 0 0 1 0 20
1 -1.4155322698372405e-16 8.2100871650559947e-15 -5.0000000000000027 1.9127365050929555e-34 -3.481924983729093e-34 1 0 1 3.481924983729093e-34 -1 -6.6600050243738314e-68 1.9127365050929555e-34 
Triangulations 0

TShapes 46
Ve
1e-07
300 0 0
0 0

0101101
*
Ed
 1e-07 1 1 0
1  1 0 0 10
0

0101000
+46 2 -46 4 *
Ve
1e-07
150 259.807621135332 0
0 0

0101101
*
Ed
 1e-07 1 1 0
1  2 0 0 10
0

0101000
+44 2 -44 4 *
Ed
 1e-07 1 1 0
1  3 0 0 300
0

0101000
+46 8 -44 8 *
Wi

0101100
+45 0 -43 0 -42 7 +42 9 *
Fa
0  1e-07 1 0

0101000
+41 0 *
Ve
1e-07
-150 259.807621135332 0
0 0

0101101
*
Ed
 1e-07 1 1 0
1  4 0 0 10
0

0101000
+39 2 -39 4 *
Ed
 1e-07 1 1 0
1  5 0 0 300
0

0101000
+44 8 -39 8 *
Wi

0101100
+43 0 -38 0 -37 7 +37 9 *
Fa
0  1e-07 2 0

0101000
+36 0 *
Ve
1e-07
-300 0 0
0 0

0101101
*
Ed
 1e-07 1 1 0
1  6 0 0 10
0

0101000
+34 2 -34 4 *
Ed
 1e-07 1 1 0
1  7 0 0 300
0

0101000
+39 8 -34 8 *
Wi

0101100
+38 0 -33 0 -32 7 +32 9 *
Fa
0  1e-07 3 0

0101000
+31 0 *
Ve
1e-07
-150 -259.807621135332 0
0 0

0101101
*
Ed
 1e-07 1 1 0
1  8 0 0 10
0

0101000
+29 2 -29 4 *
Ed
 1e-07 1 1 0
1  9 0 0 300
0

0101000
+34 8 -29 8 *
Wi

0101100
+33 0 -28 0 -27 7 +27 9 *
Fa
0  1e-07 4 0

0101000
+26 0 *
Ve
1e-07
150 -259.807621135332 0
0 0

0101101
*
Ed
 1e-07 1 1 0
1  10 0 0 10
0

0101000
+24 2 -24 4 *
Ed
 1e-07 1 1 0
1  11 0 0 300
0

0101000
+29 8 -24 8 *
Wi

0101100
+28 0 -23 0 -22 7 +22 9 *
Fa
0  1e-07 5 0

0101000
+21 0 *
Ed
 1e-07 1 1 0
1  12 0 0 300
0

0101000
+24 8 -46 8 *
Wi

0101100
+23 0 -45 0 -19 7 +19 9 *
Fa
0  1e-07 6 0

0101000
+18 0 *
Ve
1e-07
20 -50 0
0 0

0101101
*
Ed
 1e-07 1 1 0
1  13 0 0 10
3  1 2CN 7 0 0 10
0

0101000
+16 2 -16 4 *
Ed
 1e-07 1 1 0
1  14 0 0 6.28318530717959
2  3 7 10 0 6.28318530717959
2  4 7 11 0 6.28318530717959
0

0101100
+16 8 -16 8 *
Wi

0101100
+15 0 -15 0 -14 7 +14 9 *
Fa
0  1e-07 7 0

0101000
+13 0 *
Ve
1e-07
20 50 0
0 0

0101101
*
Ed
 1e-07 1 1 0
1  15 0 0 10
3  5 6CN 8 0 0 10
0

0101000
+11 2 -11 4 *
Ed
 1e-07 1 1 0
1  16 0 0 6.28318530717959
2  7 8 10 0 6.28318530717959
2  8 8 11 0 6.28318530717959
0

0101100
+11 8 -11 8 *
Wi

0101100
+10 0 -10 0 -9 7 +9 9 *
Fa
0  1e-07 8 0

0101000
+8 0 *
Wi

0101100
+42 0 +37 0 +32 0 +27 0 +22 0 +19 0 *
Wi

0101100
+14 0 *
Wi

0101100
+9 0 *
Fa
0  1e-07 9 0

0101000
+6 7 -5 7 -4 7 *
Sh

0101100
+40 0 +35 0 +30 0 +25 0 +20 0 +17 0 -12 0 -7 0 +3 0 -3 3 
*
So

1100000
-2 0 *

+1 1 